<svg width="273" height="143" viewBox="0 0 273 143" fill="none" xmlns="http://www.w3.org/2000/svg">
<path d="M84.75 95H60.75V54H25.3125V95H1.3125V1.9375H25.3125V36H60.75V1.9375H84.75V95ZM105.648 95V0.663994H177.328V20.12H129.583V37.528H172.592V55.576H129.583V75.544H177.328V95H105.648ZM192.648 95V0.663994H216.583V35.736H248.712V0.663994H272.648V95H248.712V54.424H216.583V95H192.648ZM0.213828 143V120.89H1.92383V130.55H14.1638V120.89H15.8738V143H14.1638V132.11H1.92383V143H0.213828ZM21.4541 143V120.89H35.5241V122.48H23.1641V130.55H33.9941V132.11H23.1641V141.41H35.5241V143H21.4541ZM44.4711 143V122.48H37.4811V120.89H53.1411V122.48H46.1511V143H44.4711ZM55.388 143V141.41H58.568V122.48H55.388V120.89H63.428V122.48H60.278V141.41H63.428V143H55.388ZM70.5547 143L67.6147 140.03V123.86L70.5547 120.89H80.0947L83.1547 123.98L82.1047 125.09L79.4647 122.42H71.2447L69.2947 124.4V139.49L71.2447 141.47H79.6447L82.3447 138.74L83.4247 139.82L80.2747 143H70.5547ZM94.6084 143V120.89H108.678V122.48H96.3184V130.55H107.148V132.11H96.3184V141.41H108.678V143H94.6084ZM118.555 143L110.785 120.89H112.525L119.635 141.38H120.295L127.405 120.89H129.175L121.375 143H118.555ZM132.46 143V120.89H146.53V122.48H134.17V130.55H145V132.11H134.17V141.41H146.53V143H132.46ZM150.917 143V120.89H153.587L164.147 140.33H164.537V120.89H166.247V143H163.817L153.257 123.56H152.627V143H150.917ZM176.395 143V122.48H169.405V120.89H185.065V122.48H178.075V143H176.395ZM187.628 143V141.41H198.428L200.378 139.43V134.33L198.428 132.35H189.728L186.788 129.41V123.86L189.728 120.89H200.978V122.48H190.448L188.498 124.46V128.84L190.448 130.82H199.148L202.088 133.79V140.03L199.148 143H187.628ZM214.14 143V120.89H215.85V130.55H228.09V120.89H229.8V143H228.09V132.11H215.85V143H214.14ZM237.99 143L235.05 140.03V120.89H236.73V139.49L238.68 141.47H247.29L249.24 139.49V120.89H250.95V140.03L248.01 143H237.99ZM256.21 143V120.89H267.22L270.16 123.86V129.02L268.78 131.12L271.48 133.94V140.03L268.54 143H256.21ZM257.92 130.55H267.19L268.48 128.6V124.4L266.53 122.42H257.92V130.55ZM257.92 141.47H267.82L269.77 139.49V134.36L267.61 132.11H257.92V141.47Z" fill="#14AE5C"/>
</svg>
